HIERARCHY
ROOT Hips
{
	OFFSET 0.00000 0.00000 0.00000
	CHANNELS 6 Xposition Yposition Zposition Zrotation Yrotation Xrotation 
	JOINT LHipJoint
	{
		OFFSET 0 0 0
		CHANNELS 3 Zrotation Yrotation Xrotation
		JOINT LeftUpLeg
		{
			OFFSET 1.84395 -1.68683 0.74144
			CHANNELS 3 Zrotation Yrotation Xrotation
			JOINT LeftLeg
			{
				OFFSET 2.27037 -6.23779 0.00000
				CHANNELS 3 Zrotation Yrotation Xrotation
				JOINT LeftFoot
				{
					OFFSET 2.56918 -7.05877 0.00000
					CHANNELS 3 Zrotation Yrotation Xrotation
					JOINT LeftToeBase
					{
						OFFSET 0.22276 -0.61202 1.71784
						CHANNELS 3 Zrotation Yrotation Xrotation
						End Site
						{
							OFFSET 0.00000 -0.00000 0.91613
						}
					}
				}
			}
		}
	}
	JOINT RHipJoint
	{
		OFFSET 0 0 0
		CHANNELS 3 Zrotation Yrotation Xrotation
		JOINT RightUpLeg
		{
			OFFSET -1.76833 -1.68684 0.74144
			CHANNELS 3 Zrotation Yrotation Xrotation
			JOINT RightLeg
			{
				OFFSET -2.49360 -6.85110 0.00000
				CHANNELS 3 Zrotation Yrotation Xrotation
				JOINT RightFoot
				{
					OFFSET -2.55538 -7.02085 0.00000
					CHANNELS 3 Zrotation Yrotation Xrotation
					JOINT RightToeBase
					{
						OFFSET -0.21516 -0.59115 1.68050
						CHANNELS 3 Zrotation Yrotation Xrotation
						End Site
						{
							OFFSET -0.00000 -0.00000 0.89604
						}
					}
				}
			}
		}
	}
	JOINT LowerBack
	{
		OFFSET 0 0 0
		CHANNELS 3 Zrotation Yrotation Xrotation
		JOINT Spine
		{
			OFFSET 0.06382 1.72312 -0.19613
			CHANNELS 3 Zrotation Yrotation Xrotation
			JOINT Spine1
			{
				OFFSET -0.00055 1.73507 0.23859
				CHANNELS 3 Zrotation Yrotation Xrotation
				JOINT Neck
				{
					OFFSET 0 0 0
					CHANNELS 3 Zrotation Yrotation Xrotation
					JOINT Neck1
					{
						OFFSET 0.03638 1.65562 0.09633
						CHANNELS 3 Zrotation Yrotation Xrotation
						JOINT Head
						{
							OFFSET 0.06388 1.62807 -0.32386
							CHANNELS 3 Zrotation Yrotation Xrotation
							End Site
							{
								OFFSET 0.00995 1.67644 -0.12021
							}
						}
					}
				}
				JOINT LeftShoulder
				{
					OFFSET 0 0 0
					CHANNELS 3 Zrotation Yrotation Xrotation
					JOINT LeftArm
					{
						OFFSET 3.09648 1.42991 0.28122
						CHANNELS 3 Zrotation Yrotation Xrotation
						JOINT LeftForeArm
						{
							OFFSET 5.11878 -0.00000 -0.00000
							CHANNELS 3 Zrotation Yrotation Xrotation
							JOINT LeftHand
							{
								OFFSET 3.59971 -0.00000 0.00000
								CHANNELS 3 Zrotation Yrotation Xrotation
								JOINT LeftFingerBase
								{
									OFFSET 0 0 0
									CHANNELS 3 Zrotation Yrotation Xrotation
									JOINT LeftHandIndex1
									{
										OFFSET 0.62877 -0.00000 0.00000
										CHANNELS 3 Zrotation Yrotation Xrotation
										End Site
										{
											OFFSET 0.50693 -0.00000 0.00000
										}
									}
								}
								JOINT LThumb
								{
									OFFSET 0 0 0
									CHANNELS 3 Zrotation Yrotation Xrotation
									End Site
									{
										OFFSET 0.51467 -0.00000 0.51467
									}
								}
							}
						}
					}
				}
				JOINT RightShoulder
				{
					OFFSET 0 0 0
					CHANNELS 3 Zrotation Yrotation Xrotation
					JOINT RightArm
					{
						OFFSET -3.33565 1.14597 0.05047
						CHANNELS 3 Zrotation Yrotation Xrotation
						JOINT RightForeArm
						{
							OFFSET -5.49020 -0.00000 0.00000
							CHANNELS 3 Zrotation Yrotation Xrotation
							JOINT RightHand
							{
								OFFSET -3.20659 -0.00000 -0.00000
								CHANNELS 3 Zrotation Yrotation Xrotation
								JOINT RightFingerBase
								{
									OFFSET 0 0 0
									CHANNELS 3 Zrotation Yrotation Xrotation
									JOINT RightHandIndex1
									{
										OFFSET -0.69188 -0.00000 0.00000
										CHANNELS 3 Zrotation Yrotation Xrotation
										End Site
										{
											OFFSET -0.55781 -0.00000 0.00000
										}
									}
								}
								JOINT RThumb
								{
									OFFSET 0 0 0
									CHANNELS 3 Zrotation Yrotation Xrotation
									End Site
									{
										OFFSET -0.56633 -0.00000 0.56633
									}
								}
							}
						}
					}
				}
			}
		}
	}
}
MOTION
Frames: 6
Frame Time: .0083333
0.181 17.4162 8.5681 0 0 0 0 0 0 -21 0 0 0 0 0 0 0 0 0 0 0 0 0 0 21 0 0 0 0 0 0 0 0 0 0 0 0 0 0 0 0 0 0 0 0 0 0 -16 0 0 21 0 0 11 0 0 0 -8 0 0 0 0 0 0 0 0 0 0 0 0 0 0 0 0 0 0 0 0 8 0 0 0 0 0 0 0 0 0 0 0 0 0 0 0 0 0
0.1810 17.4162 8.5681 -8.7360 -0.6925 10.3228 0.0000 0.0000 0.0000 -16.2031 -38.5338 19.7601 0.0435 -1.3459 -3.7012 -5.2817 40.7722 -37.2453 0.1837 2.7603 7.6120 0.0000 0.0000 0.0000 26.3233 25.3077 5.1691 -0.0257 -1.0349 2.8448 0.7181 -19.4073 -20.6363 -0.0131 -0.7392 2.0316 6.6549 1.8587 -1.8010 0.2030 2.7034 -8.5939 -3.6277 0.8860 -7.7503 -8.9894 -14.6732 3.6087 10.8294 -21.0897 10.9524 3.6989 -10.4578 4.8240 -0.0000 -0.0000 0.0000 -89.5260 11.1052 7.4025 12.1838 -20.0798 -2.1650 -0.0000 -0.0000 26.9757 13.8767 -11.9673 -2.9324 -7.1250 0.0000 -0.0000 -9.2803 17.7588 6.0882 -0.0000 -0.0000 0.0000 95.0784 -10.8520 -10.4524 -14.7991 23.8655 -3.1442 0.0000 0.0000 36.2359 12.3599 -29.1518 -6.0929 7.1250 -0.0000 -0.0000 44.1616 -53.5178 -10.9123
0.1804 17.4160 8.5664 -8.7510 -0.6618 10.3204 0.0000 0.0000 0.0000 -16.0955 -38.4411 19.6426 0.0437 -1.3495 -3.7109 -5.2956 40.7318 -37.0452 0.1787 2.7230 7.5084 0.0000 0.0000 0.0000 26.3487 25.3409 5.1800 -0.0259 -1.0398 2.8584 0.7012 -19.3584 -20.7406 -0.0190 -0.8889 2.4432 6.6751 1.7753 -1.8321 0.3502 2.5994 -8.6168 -3.4786 0.8375 -7.7752 -9.3486 -14.5411 3.5408 10.8295 -20.9286 11.1342 3.7466 -10.3851 4.9113 -0.0000 0.0000 0.0000 -89.8081 11.1458 6.9261 12.1814 -20.0761 -2.1642 -0.0000 -0.0000 27.0958 13.8223 -12.0655 -2.9441 -7.1250 0.0000 -0.0000 -9.3165 17.6629 6.1325 -0.0000 0.0000 0.0000 94.7818 -10.8461 -10.1789 -14.7502 23.7970 -3.1245 0.0000 0.0000 36.1501 12.2072 -29.1953 -6.0240 7.1250 -0.0000 -0.0000 44.0675 -53.5792 -10.9539
0.1813 17.4158 8.5656 -8.7675 -0.6448 10.3148 0.0000 0.0000 0.0000 -16.0732 -38.4234 19.6317 0.0437 -1.3494 -3.7106 -5.2818 40.6941 -37.0128 0.1853 2.7726 7.6462 0.0000 0.0000 0.0000 26.3589 25.2907 5.1513 -0.0263 -1.0467 2.8774 0.6855 -19.2633 -20.7395 -0.0198 -0.9092 2.4989 6.7080 1.6936 -1.8473 0.5008 2.5002 -8.6510 -3.3338 0.7898 -7.8208 -9.5535 -14.4525 3.3326 10.7387 -20.8177 11.4422 3.7290 -10.3271 5.0398 -0.0000 0.0000 0.0000 -90.1008 11.2060 6.4007 12.1742 -20.0654 -2.1617 -0.0000 -0.0000 27.2381 13.9441 -12.2735 -3.0214 -7.1250 0.0000 -0.0000 -9.2287 17.4441 6.1180 -0.0000 0.0000 0.0000 94.4724 -10.8903 -9.9120 -14.7211 23.7561 -3.1127 0.0000 0.0000 36.1577 12.2181 -29.2677 -6.0430 7.1250 -0.0000 -0.0000 44.1393 -53.6320 -11.0410
0.1825 17.4154 8.5651 -8.8071 -0.6291 10.2947 0.0000 0.0000 0.0000 -16.0658 -38.4158 19.6749 0.0436 -1.3472 -3.7046 -5.2564 40.6642 -37.0710 0.1905 2.8109 7.7526 0.0000 0.0000 0.0000 26.3981 25.1789 5.1245 -0.0263 -1.0465 2.8767 0.6868 -19.2132 -20.6248 -0.0180 -0.8655 2.3789 6.7617 1.6185 -1.8408 0.6525 2.4120 -8.6774 -3.2005 0.7461 -7.8686 -10.0399 -14.3247 3.2951 10.9294 -20.6888 11.6149 3.8487 -10.2702 5.1556 0.0000 -0.0000 0.0000 -90.3837 11.2522 5.9344 12.1632 -20.0489 -2.1579 -0.0000 -0.0000 27.3228 14.1600 -12.4138 -3.1045 -7.1250 0.0000 -0.0000 -9.0773 17.2873 6.0466 0.0000 -0.0000 0.0000 94.1734 -10.9537 -9.6356 -14.7334 23.7734 -3.1177 0.0000 0.0000 36.1709 12.4297 -29.2955 -6.1555 7.1250 -0.0000 -0.0000 44.3456 -53.6134 -11.0887
0.1799 17.4184 8.5712 -8.6902 -0.6280 10.4282 0.0000 0.0000 0.0000 -16.1627 -38.5649 19.5929 0.0433 -1.3432 -3.6936 -5.3425 40.8262 -37.0557 0.1805 2.7368 7.5468 0.0000 0.0000 0.0000 26.2134 25.2289 5.0226 -0.0254 -1.0282 2.8264 0.6981 -19.2698 -20.6016 -0.0177 -0.8592 2.3614 6.6542 1.6107 -1.9363 0.6698 2.3921 -8.6875 -3.1186 0.7459 -7.8288 -10.1296 -14.3403 2.7826 10.9400 -20.7018 11.8488 3.8116 -10.2540 5.3235 0.0000 -0.0000 0.0000 -90.3874 11.3251 6.6661 12.3278 -20.2944 -2.2147 -0.0000 -0.0000 26.5854 14.2166 -11.8113 -2.9686 -7.1250 0.0000 -0.0000 -9.0463 17.8950 5.9032 0.0000 -0.0000 0.0000 93.9815 -10.7802 -9.4314 -14.6465 23.6514 -3.0827 0.0000 0.0000 35.8715 12.5552 -29.4142 -6.2419 7.1250 -0.0000 -0.0000 44.5565 -53.6795 -11.2400
